{"title":"Memphis Belle (1990) WW2 bomber (Widescreen,optional MULTISUBS)","uid":4702400,"size":762423121,"categoryP":"video","categoryS":"movies","magnet":"?xt=urn:btih:92e0e712a08e333b8c0fc37c6c6b7af9940a1021&amp;dn=Memphis+Belle+%281990%29+WW2+bomber+%28Widescreen%2Coptional+MULTISUBS%29&amp;tr=udp%3A%2F%2Ftracker.openbittorrent.com%3A80&amp;tr=udp%3A%2F%2Fopen.demonii.com%3A1337&amp;tr=udp%3A%2F%2Ftracker.coppersurfer.tk%3A6969&amp;tr=udp%3A%2F%2Fexodus.desync.com%3A6969","seeders":2,"leechers":0,"uploader":"Kuthumi","files":-1,"time":1233759713,"description":" &lt;a href=&quot;http://www.imdb.com/title/tt0100133/&quot; rel=&quot;nofollow&quot; target=&quot;_NEW&quot;&gt;http://www.imdb.com/title/tt0100133/&lt;/a&gt;\n\nOptional subtitles in separate idx/sub files (Work in WMP):\nCroatian (Hrvatski), Czech, Danish, Dutch, English, English for the hearing impaired, Finnish, French, Greek, German, Hebrew, Hungarian, Icelandic, Italian, Norwegian, Polish, Portuguese, Spanish, Swedish, Turkish.\n\nOne of the best war films made, according to my taste. Especially because almost all the young actors managed to continue a successful career. Based on a true story.\n\nI finally found the new widescreen PAL edition, which has not been available anywhere before. I enclose a sample for ye weak in faith.\n\nThis is an improved version of the torrent I uploaded in June.\n\nWidescreen DVDrip XviD 2-pass 720x416, great stereo sound AC3.\nBurn tested, runs well in both my standalone DivX players.\n\nFormat/Info                      : Audio Video Interleave\nFile size                        : 696 MiB\nDuration                         : 1h 42mn\nOveral bit rate                  : 947 Kbps\n\nVideo\nFormat                           : MPEG-4 Visual\nFormat profile                   : Streaming Video@L1\nFormat settings, BVOP            : Yes\nFormat settings, QPel            : No\nFormat settings, GMC             : No warppoints\nFormat settings, Matrix          : Default\nMuxing mode                      : Packet Bitstream\nCodec ID                         : XVID\nCodec ID/Hint                    : XviD\nDuration                         : 1h 42mn\nBit rate                         : 810 Kbps\nWidth                            : 720 pixels\nHeight                           : 416 pixels\nDisplay aspect ratio             : 16/9\nFrame rate                       : 25.000 fps\nResolution                       : 8 bits\nColorimetry                      : 4:2:0\nScan type                        : Progressive\nBits/(Pixel*Frame)               : 0.108\nStream size                      : 595 MiB\nWriting library                  : XviD 1.2.0.dev47 (UTC 2006-11-01)\n\nAudio\nFormat                           : MPEG Audio\nFormat version                   : Version 1\nFormat profile                   : Layer 3\nCodec ID                         : 55\nCodec ID/Hint                    : MP3\nDuration                         : 1h 42mn\nBit rate mode                    : Constant\nBit rate                         : 128 Kbps\nMinimum bit rate                 : 128 Kbps\nChannel(s)                       : 2 channels\nSampling rate                    : 48.0 KHz\nResolution                       : 16 bits\nStream size                      : 94.1 MiB\nWriting library                  : LAME3.97 \nEncoding settings                : CBR\n\nSource: PAL retail (note that PAL/NTSC will give no problems for avi files)","torrent":{"xt":"urn:btih:92e0e712a08e333b8c0fc37c6c6b7af9940a1021","amp;dn":"Memphis+Belle+%281990%29+WW2+bomber+%28Widescreen%2Coptional+MULTISUBS%29","amp;tr":["udp%3A%2F%2Ftracker.openbittorrent.com%3A80","udp%3A%2F%2Fopen.demonii.com%3A1337","udp%3A%2F%2Ftracker.coppersurfer.tk%3A6969","udp%3A%2F%2Fexodus.desync.com%3A6969"],"infoHash":"92e0e712a08e333b8c0fc37c6c6b7af9940a1021","infoHashBuffer":{"type":"Buffer","data":[146,224,231,18,160,142,51,59,140,15,195,124,108,107,122,249,148,10,16,33]},"announce":[],"urlList":[]}}